<svg width="25" height="25" viewBox="0 0 25 25" fill="none" xmlns="http://www.w3.org/2000/svg">
<path d="M7.5 20.8333H3.33334V8.33333H7.5V20.8333ZM5.4175 6.66667C4.265 6.66667 3.33334 5.7325 3.33334 4.5825C3.33334 3.4325 4.26667 2.5 5.4175 2.5C6.56583 2.5 7.5 3.43417 7.5 4.5825C7.5 5.7325 6.56583 6.66667 5.4175 6.66667ZM22.5 20.8333H18.4942V14.75C18.4942 13.2992 18.4667 11.4333 16.4117 11.4333C14.3258 11.4333 14.005 13.0133 14.005 14.645V20.8333H10V8.32417H13.845V10.0333H13.8992C14.4342 9.05 15.7417 8.01333 17.6917 8.01333C21.75 8.01333 22.5 10.6042 22.5 13.9725V20.8333Z" fill="white"/>
</svg>
